<?xml version="1.0" encoding="UTF-8"?>
<svg id="Layer_2" data-name="Layer 2" xmlns="http://www.w3.org/2000/svg" viewBox="0 0 420.22 978.34">
  <defs>
    <style>
      .cls-1 {
        fill: #30bced;
      }

      .cls-1, .cls-2, .cls-3 {
        stroke-width: 0px;
      }

      .cls-4 {
        letter-spacing: 0em;
      }

      .cls-5, .cls-6 {
        fill: #81c14b;
        stroke-linejoin: round;
        stroke-width: 2px;
      }

      .cls-5, .cls-6, .cls-7 {
        stroke: #81c14b;
      }

      .cls-5, .cls-7 {
        stroke-linecap: round;
      }

      .cls-2 {
        fill: #f75590;
      }

      .cls-8 {
        fill: #131313;
        font-family: Blanket-Heavy, Blanket;
        font-size: 149px;
        font-weight: 800;
      }

      .cls-3 {
        fill: #ef8a17;
      }

      .cls-7 {
        fill: none;
        stroke-miterlimit: 10;
        stroke-width: 6px;
      }
    </style>
  </defs>
  <g id="logo">
    <g>
      <g id="blueflower">
        <g id="bluepetals">
          <path id="bluepetal1" class="cls-1" d="M70.06,398.16c-7.12-.04-12.92-1.04-17-2-14.18-3.34-22.85-9.75-34-18-5.31-3.92-8.24-6.67-10-11-.42-1.03-3.78-9.32,0-14,3.99-4.94,11.01.28,21-5,5.53-2.92,5.75-5.78,11-7,6.71-1.57,12.45,1.68,13,2,5.07,2.96,6.9,7.67,10,16,3.3,8.86,4.22,16.36,5,23,.72,6.16.93,12.63.93,12.63.04,1.4.06,2.56.07,3.37Z"/>
          <path id="bluepetal2" class="cls-1" d="M27.06,346.16c-2.18-3.31-35.57-54.58-25-68,.68-.86,1.91-2.43,4-3,7.34-2.01,12.24,11.77,22,12,7.77.18,9.59-8.43,18-8,6.17.31,10.6,5.23,14,9,3.81,4.22,6.95,9.4,11,22,3.49,10.85,7.45,23.49,8,41,.18,5.58.38,13.38-1.5,23.5-1.85,9.96-4.92,17.93-7.5,23.5-20.39-19.97-34.17-38.6-43-52Z"/>
          <path id="bluepetal3" class="cls-1" d="M32.06,275.16c-2.8-15.07-9.39-54.77,3-61,3.65-1.84,7-1,7-1,8.87,2.21,7.4,17.75,16,21,6.6,2.49,10.61-5.45,20-4,8.58,1.33,13.93,9.39,17,14,4.79,7.2,7.64,15.6,9,33,.9,11.44,2.07,27.97-2,50-2.26,12.24-5.43,28.58-16,47-5.63,9.8-11.59,17.14-16,22-22.55-51.93-32.83-93.15-38-121Z"/>
          <path id="bluepetal4" class="cls-1" d="M70.06,396.16c5-2.61,11.85-6.73,19-13,4.28-3.75,8.86-8.44,16-18,7.23-9.68,15.93-21.33,24-39,3.89-8.52,10.19-22.59,13-42,.68-4.72,2.77-20.93-4-36-1.63-3.63-3.61-6.83-7-8-4.78-1.65-9.99,1.55-17,6-6.95,4.41-11.92,8.9-13,10-9.18,9.33-23.01,63.73-31,140Z"/>
        </g>
        <g id="right">
          <path id="leaf3" class="cls-7" d="M183.06,841.16c1.68-13.35,3.63-33.02,4-57,.12-8,.06-15.6-1-44-2.29-61.46-3.16-57.73-3-75,.27-29.95,3.02-53.41,5-70,1.82-15.2,3.65-30.12,8-50,1.13-5.18,4.96-22.18,12-44,6.12-18.96,11.92-33.05,14-38,5.17-12.32,10.83-24.26,23-47,9.37-17.51,22.02-40.33,38-67"/>
          <path class="cls-5" d="M183.06,685.16c3.01-5.64,7.18-14.17,11-25,3.53-10.01,5.24-17.69,6-21,2.93-12.74,9.08-39.52,19-63,13.33-31.55,30.61-50.36,35-55,7.57-8,14.69-13.95,20-18-3.4,7.96-7.88,19.95-11,35-5.58,26.9.25,29.44-4,48,0,0-8.54,37.28-50,73-1.17,1.01-5.93,5.03-12,11-6.09,5.98-10.81,11.26-14,15Z"/>
        </g>
      </g>
      <g id="orangeflower">
        <g id="mid">
          <path id="stem2" class="cls-7" d="M169.06,811.16c-13.74-53.08-16.76-96.85-17-126-.26-31.18,2.58-56.74,4-68,3.1-24.59,7.35-43.97,10-55,1.85-7.72,3.64-14.36,14-48,16.71-54.26,18.18-56.86,23-75,3.12-11.74,8.46-32.03,13-59,6.88-40.92,7.8-72.78,8-83,.41-21.12-.72-39.75-3-77-1.07-17.45-2.18-31.94-3-42"/>
          <path id="leaf2" class="cls-6" d="M176.06,527.16c.19-5.97.5-14.59,1-25,1.01-21.14,1.68-26.59,2-29,1.81-13.59,4.35-18.97,7-30,1.92-8,10.81-45.04,0-78-1.21-3.7-2.88-7.97-8-23-3.52-10.32-6.28-18.72-8-24-3.93,6.65-8.71,15.73-13,27-1.78,4.68-6.86,18.23-9,33-4.87,33.64,6.86,64.55,15,86,3.1,8.17,6.23,15.09,9,27,3.44,14.79,4.05,27.44,4,36Z"/>
        </g>
        <g id="orangepetals">
          <path id="orangepetal1" class="cls-3" d="M218.56,178.66c-15.36-2.5-34.81-8.21-54-21-10.93-7.29-30.69-20.84-41-46-3.43-8.36-11.81-28.82-2-44,1.31-2.03,6.94-10.74,15-11,12.25-.39,15.11,19.23,31,21,6.66.74,11.22-2.13,20,1,1.27.45,5.3,1.98,9,5,3.33,2.71,9.87,9.45,14,44,1.23,10.32.76,10.58,2,20,1.75,13.27,4.19,23.96,6,31Z"/>
          <path id="orangepetal2" class="cls-3" d="M218.06,178.16c3.76-22.72,9.99-40.22,15-52,12.67-29.75,21.43-31.92,25-32,4.65-.1,9,2,9,2,5.92,2.87,5.58,6.5,11,9,5.71,2.64,9.33.09,12,3,1.16,1.26,2.33,3.75,1,10-1.09,5.14-3.73,12.47-14,24-3.79,4.25-12.21,12.89-25,21-3.39,2.15-9.25,5.63-17,9-6.32,2.75-12.11,4.66-17,6Z"/>
          <path id="orangepetal3" class="cls-3" d="M145.06,56.16c.26-8.16,3.81-30.69,12-34,3.19-1.29,6-1,6-1,5.54.57,6.56,5.06,10,5,5.5-.09,6.34-11.58,14-13,2.93-.54,6.32.49,8,1,4.32,1.32,4.33,2.71,7,3,5.3.57,10.36-4.39,12-6,2.83-2.77,2.77-4.08,5-5,3.4-1.41,7.08.15,9,1,7.23,3.19,7.09,7.83,11,9,7.74,2.32,13.93-14.19,26-16,11.51-1.72,22.24,10.85,24,13,20.56,25.11.64,72.56-5,86-16.62,39.6-45.32,64.72-66,79-8.4-9.19-74.25-82.09-73-122Z"/>
        </g>
      </g>
      <g id="pinkflower">
        <g id="left">
          <path id="stem1" class="cls-7" d="M129.56,831.66c2.17-19.54,3.34-36.2,4-49,.7-13.52,1.35-26.67,1-44-.13-6.43-.61-23.17-3-45-1.58-14.4-4.73-37.8-11.5-66.5-8.8-37.32-14.25-43.54-27-94-4.49-17.77-7.36-31.04-8-34-5.47-25.42-11.61-59.74-15.5-101.5"/>
          <path id="leaf1" class="cls-5" d="M129.06,676.16c-2.01-3.79-4.94-9.63-8-17-6.45-15.55-7.39-23.34-14-40-1.07-2.7-3.97-9.87-8-18-9.83-19.83-18.09-28.69-26-41-6.29-9.79-14.28-24.76-20-46-3.57,15.62-3.63,28.87-3,38,.6,8.73,2.1,27.72,13,48,5.56,10.35,12.06,18.23,16,23,1.4,1.7,7.57,9.1,17,18,8.72,8.23,10.78,8.81,17,15,4.42,4.4,10.22,10.91,16,20Z"/>
        </g>
        <g id="pinkpetals">
          <path id="pinkpetal1" class="cls-2" d="M283.06,349.16c-6.45-14.39-9.96-27.17-12-37-3.92-18.93-9.85-47.59,4-59,3.76-3.1,9.75-5.55,16-5,9.54.85,15.48,8.31,16,9,13.36,17.8-3.81,51.78-6,56-1.72,3.32-3.77,6.7-8,15-4.45,8.75-7.81,16.07-10,21Z"/>
          <path id="pinkpetal2" class="cls-2" d="M288.06,339.16c4.92-8.05,9.93-12.33,17-19,14.12-13.32,10.86-12.02,20-20,6.84-5.97,14.13-12.27,25-18,11.84-6.25,17.76-9.37,25-8,10.24,1.94,10.44,10.3,22,13,10.54,2.46,16.94-2.97,21,1,4.37,4.27.89,14.39,0,17-9.54,27.81-45.23,40.03-51,42-20.18,6.91-37.78,6.39-51,6-13.75-.4-25.1-2.3-33-4,.99-2.49,2.57-6.03,5-10Z"/>
          <path id="pinkpetal3" class="cls-2" d="M297.06,245.16c1.45-4.19,7.95-22.21,24-34,9.85-7.24,14.15-5.41,15-5,5.41,2.62,2.7,11.69,9,16,6.01,4.11,11.73-1.91,18,2,6.66,4.16,2.77,12.55,10,19,6.14,5.47,11.93,2.07,18,7,0,0,7.3,5.92,7,22-.58,31.06-108.79,74.54-115,77,.05-12.22.67-65.6,14-104Z"/>
        </g>
      </g>
    </g>
  </g>
  <g id="name">
    <text class="cls-8" transform="translate(16.42 944.97)"><tspan x="0" y="0">Flo</tspan><tspan class="cls-4" x="141.25" y="0">r</tspan><tspan x="188.93" y="0">esco</tspan></text>
  </g>
</svg>